# File created by Blade
# Date/Time:  Thu Jan 22 18:25:10 2015
# Frame Rate: 120.000 fps
#------------------------------------------------------
:FULLY-SPECIFIED
:DEGREES
2998
root -2.835832 33.090277 -0.302128 7.649686 -1.887259 2.636928
RightUpLeg -1.112125 -4.866301 -2.085168
RightLeg 0.104942 -0.000000 -0.000000
RightFoot -12.254859 -3.602083 3.663211
RightToeBase 6.049444 -0.000000 -0.000000
LeftUpLeg -1.044704 4.254625 0.584854
LeftLeg 0.963570 -0.000000 -0.000000
LeftFoot -11.055470 1.844626 -9.148083
LeftToeBase 8.792592 -0.000000 -0.000000
Spine -13.306201 -11.291545 -2.883566
RightShoulder 5.780250 4.088860 -19.056066
RightArm 60.158447 -35.577954 73.481749
RightForeArm 43.654613 -0.000000 112.984594
RightHand 20.384843 0.000000 21.634337
RightHandThumb1 -24.326973 -0.000000 -32.862282
LeftShoulder -0.330891 -53.346907 43.755924
LeftArm 71.653413 43.733664 -86.942370
LeftForeArm 21.673095 -0.000000 117.690163
LeftHand 0.742635 -0.000000 -26.070351
LeftHandThumb1 -26.253704 0.000000 33.147579
Head -1.413973 14.047462 7.988806
2999
root -2.837167 33.090014 -0.300811 7.652704 -1.881640 2.636688
RightUpLeg -1.111897 -4.867511 -2.081309
RightLeg 0.104890 -0.000000 -0.000000
RightFoot -12.252177 -3.615206 3.655188
RightToeBase 6.016837 -0.000000 -0.000000
LeftUpLeg -1.047174 4.253101 0.587353
LeftLeg 0.963467 -0.000000 -0.000000
LeftFoot -11.063508 1.840173 -9.166269
LeftToeBase 8.819465 -0.000000 -0.000000
Spine -13.305185 -11.279950 -2.898012
RightShoulder 5.771491 4.085505 -19.058356
RightArm 60.175422 -35.593247 73.455602
RightForeArm 43.671394 0.000000 112.969325
RightHand 20.409373 -0.000000 21.578297
RightHandThumb1 -24.326973 -0.000000 -32.862282
LeftShoulder -0.346980 -53.316403 43.743320
LeftArm 71.689346 43.740853 -86.909848
LeftForeArm 21.639601 -0.000000 117.673489
LeftHand 0.751085 -0.000000 -26.050880
LeftHandThumb1 -26.253704 0.000000 33.147579
Head -1.420289 14.017533 7.997606
3000
root -2.838246 33.089759 -0.298973 7.651152 -1.884466 2.633501
RightUpLeg -1.105160 -4.871548 -2.077482
RightLeg 0.099689 -0.000000 -0.000000
RightFoot -12.251387 -3.608104 3.648627
RightToeBase 6.043403 -0.000000 -0.000000
LeftUpLeg -1.040850 4.260420 0.591507
LeftLeg 0.961383 -0.000000 -0.000000
LeftFoot -11.056100 1.836534 -9.148395
LeftToeBase 8.747908 -0.000000 -0.000000
Spine -13.302782 -11.257220 -2.908800
RightShoulder 5.769131 4.050282 -19.063729
RightArm 60.225205 -35.583746 73.414768
RightForeArm 43.686679 -0.000000 112.957594
RightHand 20.414526 -0.000000 21.589945
RightHandThumb1 -24.326973 -0.000000 -32.862282
LeftShoulder -0.373238 -53.247419 43.713244
LeftArm 71.778342 43.748292 -86.837205
LeftForeArm 21.606272 -0.000000 117.621576
LeftHand 0.890569 -0.000000 -26.024870
LeftHandThumb1 -26.253704 0.000000 33.147579
Head -1.421178 13.992622 8.011948
3001
root -2.839948 33.089484 -0.296943 7.650938 -1.878396 2.631254
RightUpLeg -1.102542 -4.871504 -2.068750
RightLeg 0.101490 -0.000000 -0.000000
RightFoot -12.249480 -3.623623 3.658248
RightToeBase 6.000897 -0.000000 -0.000000
LeftUpLeg -1.037794 4.254720 0.595032
LeftLeg 0.965337 -0.000000 -0.000000
LeftFoot -11.080305 1.847344 -9.183266
LeftToeBase 8.829202 -0.000000 -0.000000
Spine -13.300528 -11.254143 -2.917485
RightShoulder 5.769384 4.044560 -19.069213
RightArm 60.250131 -35.595526 73.392984
RightForeArm 43.666407 -0.000000 112.950570
RightHand 20.357582 -0.000000 21.612793
RightHandThumb1 -24.326973 -0.000000 -32.862282
LeftShoulder -0.399772 -53.213343 43.738384
LeftArm 71.789686 43.748367 -86.833863
LeftForeArm 21.633725 0.000000 117.633087
LeftHand 0.889572 -0.000000 -26.005615
LeftHandThumb1 -26.253704 0.000000 33.147579
Head -1.421883 13.984021 8.018693
3002
root -2.841264 33.089218 -0.295157 7.655105 -1.872521 2.632416
RightUpLeg -1.095449 -4.886973 -2.068330
RightLeg 0.089047 -0.000000 -0.000000
RightFoot -12.247959 -3.611595 3.640155
RightToeBase 6.016640 -0.000000 -0.000000
LeftUpLeg -1.039786 4.247197 0.599466
LeftLeg 0.963736 -0.000000 -0.000000
LeftFoot -11.065644 1.836753 -9.143625
LeftToeBase 8.774053 -0.000000 -0.000000
Spine -13.308538 -11.242772 -2.930350
RightShoulder 5.771047 4.033959 -19.079623
RightArm 60.264139 -35.599743 73.381477
RightForeArm 43.711138 -0.000000 112.930414
RightHand 20.450671 -0.000000 21.565372
RightHandThumb1 -24.326973 -0.000000 -32.862282
LeftShoulder -0.399146 -53.175020 43.714832
LeftArm 71.837493 43.732792 -86.782568
LeftForeArm 21.657985 -0.000000 117.646098
LeftHand 0.816691 -0.000000 -26.077874
LeftHandThumb1 -26.253704 0.000000 33.147579
Head -1.415318 13.969056 8.011854
3003
root -2.842602 33.089282 -0.292327 7.654067 -1.864991 2.632475
RightUpLeg -1.085434 -4.877186 -2.066710
RightLeg 0.084866 -0.000000 -0.000000
RightFoot -12.254479 -3.620617 3.660759
RightToeBase 6.057331 -0.000000 -0.000000
LeftUpLeg -1.032261 4.233401 0.602720
LeftLeg 0.958252 -0.000000 -0.000000
LeftFoot -11.062412 1.848773 -9.145300
LeftToeBase 8.778126 -0.000000 -0.000000
Spine -13.292797 -11.186734 -2.974354
RightShoulder 5.693460 4.048236 -19.061289
RightArm 60.245980 -35.621561 73.371143
RightForeArm 43.733678 -0.000000 112.928221
RightHand 20.482821 0.000000 21.544223
RightHandThumb1 -24.326973 -0.000000 -32.862282
LeftShoulder -0.358956 -53.246869 43.723766
LeftArm 71.789184 43.733873 -86.836644
LeftForeArm 21.722937 -0.000000 117.643287
LeftHand 0.841982 -0.000000 -26.091330
LeftHandThumb1 -26.253704 0.000000 33.147579
Head -1.445139 13.771636 8.030281
3004
root -2.843622 33.088690 -0.289505 7.652054 -1.861575 2.631551
RightUpLeg -1.074863 -4.872044 -2.063480
RightLeg 0.080100 -0.000000 -0.000000
RightFoot -12.252462 -3.642172 3.633431
RightToeBase 5.986026 -0.000000 -0.000000
LeftUpLeg -1.022393 4.227564 0.602841
LeftLeg 0.955659 -0.000000 -0.000000
LeftFoot -11.082509 1.860795 -9.160777
LeftToeBase 8.790783 -0.000000 -0.000000
Spine -13.293009 -11.159080 -2.987963
RightShoulder 5.672161 4.024685 -19.073715
RightArm 60.264626 -35.625750 73.361203
RightForeArm 43.752889 -0.000000 112.922199
RightHand 20.486667 0.000000 21.539874
RightHandThumb1 -24.326973 -0.000000 -32.862282
LeftShoulder -0.343141 -53.246272 43.693744
LeftArm 71.794145 43.731464 -86.834987
LeftForeArm 21.731544 0.000000 117.642547
LeftHand 0.825232 -0.000000 -26.126783
LeftHandThumb1 -26.253704 0.000000 33.147579
Head -1.442219 13.725968 8.027787
3005
root -2.844164 33.088657 -0.287556 7.651142 -1.858126 2.633386
RightUpLeg -1.073392 -4.887008 -2.064728
RightLeg 0.087502 -0.000000 -0.000000
RightFoot -12.265347 -3.623231 3.635801
RightToeBase 6.024135 -0.000000 -0.000000
LeftUpLeg -1.019569 4.233426 0.605700
LeftLeg 0.952937 -0.000000 -0.000000
LeftFoot -11.063049 1.841081 -9.151208
LeftToeBase 8.760977 -0.000000 -0.000000
Spine -13.292203 -11.155728 -2.997065
RightShoulder 5.673615 4.020196 -19.082167
RightArm 60.281086 -35.626194 73.350784
RightForeArm 43.714451 -0.000000 112.920236
RightHand 20.399538 -0.000000 21.621475
RightHandThumb1 -24.326973 -0.000000 -32.862282
LeftShoulder -0.344108 -53.237401 43.679773
LeftArm 71.797266 43.729807 -86.827614
LeftForeArm 21.750415 -0.000000 117.642196
LeftHand 0.821112 -0.000000 -26.140828
LeftHandThumb1 -26.253704 0.000000 33.147579
Head -1.443078 13.707268 8.024497
3006
root -2.845177 33.088344 -0.285127 7.648643 -1.851874 2.631692
RightUpLeg -1.063852 -4.888521 -2.059250
RightLeg 0.082155 -0.000000 -0.000000
RightFoot -12.261904 -3.641288 3.641205
RightToeBase 6.011432 -0.000000 -0.000000
LeftUpLeg -1.012431 4.224511 0.607369
LeftLeg 0.954843 -0.000000 -0.000000
LeftFoot -11.085584 1.853074 -9.166408
LeftToeBase 8.831109 -0.000000 -0.000000
Spine -13.292468 -11.160366 -3.000018
RightShoulder 5.681660 4.015338 -19.085981
RightArm 60.294272 -35.623408 73.341289
RightForeArm 43.720284 -0.000000 112.914578
RightHand 20.378595 -0.000000 21.613067
RightHandThumb1 -24.326973 -0.000000 -32.862282
LeftShoulder -0.349003 -53.210453 43.665157
LeftArm 71.823297 43.726043 -86.796047
LeftForeArm 21.776157 -0.000000 117.641902
LeftHand 0.848948 -0.000000 -26.143168
LeftHandThumb1 -26.253704 0.000000 33.147579
Head -1.432095 13.707413 8.013145
3007
root -2.846611 33.088283 -0.282425 7.642610 -1.851247 2.631385
RightUpLeg -1.050405 -4.878119 -2.057869
RightLeg 0.077501 -0.000000 -0.000000
RightFoot -12.261945 -3.643089 3.645569
RightToeBase 6.006397 -0.000000 -0.000000
LeftUpLeg -0.997072 4.234897 0.613694
LeftLeg 0.939895 -0.000000 -0.000000
LeftFoot -11.067463 1.836045 -9.160116
LeftToeBase 8.783665 -0.000000 -0.000000
Spine -13.300441 -11.198141 -2.988810
RightShoulder 5.746827 4.032776 -19.101105
RightArm 60.282640 -35.619430 73.358041
RightForeArm 43.686678 -0.000000 112.897654
RightHand 20.396247 -0.000000 21.644592
RightHandThumb1 -24.326973 -0.000000 -32.862282
LeftShoulder -0.373575 -53.119461 43.632874
LeftArm 71.901057 43.722027 -86.709117
LeftForeArm 21.776911 -0.000000 117.632550
LeftHand 0.812824 -0.000000 -26.091066
LeftHandThumb1 -26.253704 0.000000 33.147579
Head -1.394896 13.732934 7.986595
3008
root -2.847151 33.087945 -0.280008 7.639949 -1.846643 2.633222
RightUpLeg -1.040591 -4.862491 -2.059858
RightLeg 0.074571 -0.000000 -0.000000
RightFoot -12.267120 -3.664917 3.641930
RightToeBase 6.000364 -0.000000 -0.000000
LeftUpLeg -0.987465 4.223234 0.614539
LeftLeg 0.932404 -0.000000 -0.000000
LeftFoot -11.071441 1.839371 -9.177306
LeftToeBase 8.817011 -0.000000 -0.000000
Spine -13.304055 -11.219477 -2.988588
RightShoulder 5.768151 4.068153 -19.101641
RightArm 60.266568 -35.629993 73.356991
RightForeArm 43.666974 -0.000000 112.881986
RightHand 20.422028 0.000000 21.641818
RightHandThumb1 -24.326973 -0.000000 -32.862282
LeftShoulder -0.408733 -53.084110 43.641245
LeftArm 71.916800 43.719590 -86.687033
LeftForeArm 21.776572 0.000000 117.633611
LeftHand 0.833769 0.000000 -26.127423
LeftHandThumb1 -26.253704 0.000000 33.147579
Head -1.372905 13.737472 7.974725
